<svg width="16" height="13" viewBox="0 0 16 13" fill="none" xmlns="http://www.w3.org/2000/svg">
<path fill-rule="evenodd" clip-rule="evenodd" d="M2 0.25C0.895431 0.25 0 1.14543 0 2.25V11C0 12.1046 0.895431 13 2 13H14C15.1046 13 16 12.1046 16 11V2.25C16 1.14543 15.1046 0.25 14 0.25H2ZM3 2.375C2.44772 2.375 2 2.82272 2 3.375V9.875C2 10.4273 2.44772 10.875 3 10.875H13C13.5523 10.875 14 10.4273 14 9.875V3.375C14 2.82272 13.5523 2.375 13 2.375H3ZM7.00987 8.73944L7 8.75L8 9.8125L9 8.75L8.01231 7.70821L8.01445 7.70594L4.50714 3.97258L3.51807 5.06458L5.01262 6.63749L3.49768 8.22651L4.52545 9.2774L6.02382 7.7017L7.00987 8.73944ZM12.5138 5.02608L11.5252 3.97573L8.01148 7.70224L9.03925 8.75314L10 7.72254L11.4408 9.26919L12.4671 8.22271L11.0029 6.64678L12.5138 5.02608Z" fill="#82868E"/>
</svg>
