<svg width="16" height="18" viewBox="0 0 16 18" fill="none" xmlns="http://www.w3.org/2000/svg">
<path fill-rule="evenodd" clip-rule="evenodd" d="M8 0.0625C5.79086 0.0625 4 1.85336 4 4.0625V7.75C4 7.9482 4.01442 8.14304 4.04226 8.33352C1.62777 9.43092 0 11.5015 0 13.875C0 14.0806 0.0122131 14.2658 0.0360928 14.4323C0.0124039 14.5554 0 14.6825 0 14.8125V15.0625C0 16.1671 0.895431 17.0625 2 17.0625H14C15.1046 17.0625 16 16.1671 16 15.0625V14.8125C16 14.6825 15.9876 14.5554 15.9639 14.4323C15.9878 14.2658 16 14.0806 16 13.875C16 11.5015 14.3722 9.43092 11.9577 8.33352C11.9856 8.14304 12 7.9482 12 7.75V4.0625C12 1.85336 10.2091 0.0625 8 0.0625ZM2 13.875C2 12.3389 3.15052 10.9931 4.87448 10.2465C5.60747 11.163 6.73518 11.75 8 11.75C9.26482 11.75 10.3925 11.163 11.1255 10.2465C12.8495 10.9931 14 12.3389 14 13.875C14 14.0043 13.9919 14.1193 13.9759 14.2212C13.9915 14.2697 14 14.3213 14 14.375V14.4375C14 14.7136 13.7761 14.9375 13.5 14.9375H2.5C2.22386 14.9375 2 14.7136 2 14.4375V14.375C2 14.3213 2.00845 14.2697 2.02409 14.2212C2.00815 14.1193 2 14.0043 2 13.875ZM6 4.1875C6 3.08293 6.89543 2.1875 8 2.1875C9.10457 2.1875 10 3.08293 10 4.1875V7.625C10 8.72957 9.10457 9.625 8 9.625C6.89543 9.625 6 8.72957 6 7.625V4.1875Z" fill="#82868E"/>
</svg>
